<?xml version="1.0" standalone="no"?>
<!DOCTYPE svg PUBLIC "-//W3C//DTD SVG 20010904//EN"
 "http://www.w3.org/TR/2001/REC-SVG-20010904/DTD/svg10.dtd">
<svg version="1.0" xmlns="http://www.w3.org/2000/svg"
 width="256.000000pt" height="256.000000pt" viewBox="0 0 256.000000 256.000000"
 preserveAspectRatio="xMidYMid meet">
<g transform="translate(0.000000,256.000000) scale(0.100000,-0.100000)"
fill="#603384" stroke="none">
<path d="M1227 2202 l-357 -357 488 -488 487 -487 358 358 c430 430 407 386
270 524 -117 117 -126 118 -278 12 -61 -41 -118 -80 -128 -85 -10 -6 21 49 70
121 67 102 87 139 87 166 0 32 -15 50 -164 199 -156 156 -167 165 -203 165
-21 0 -47 -5 -58 -11 -19 -9 -19 -9 -10 10 6 11 11 37 11 58 0 34 -8 46 -68
106 -61 60 -72 67 -107 67 -39 0 -47 -7 -398 -358z"/>
<path d="M643 1618 c-61 -62 -114 -123 -117 -135 -12 -38 20 -86 124 -188 56
-55 108 -112 116 -127 20 -39 18 -117 -6 -155 -13 -22 -109 -91 -314 -227
-317 -209 -378 -258 -416 -333 -37 -73 -41 -193 -7 -265 34 -75 78 -122 149
-158 51 -25 73 -30 133 -30 171 0 208 33 472 433 141 213 214 314 236 328 38
23 116 25 155 5 15 -8 74 -62 132 -120 109 -110 148 -134 191 -117 13 5 72 58
131 118 l108 108 -488 488 -487 487 -112 -112z m-247 -1222 c28 -28 34 -42 34
-76 0 -105 -121 -157 -193 -82 -33 35 -42 72 -27 116 16 48 55 75 109 76 36 0
49 -6 77 -34z"/>
</g>
</svg>
